<?xml version="1.0" standalone="no"?>
<!DOCTYPE svg PUBLIC "-//W3C//DTD SVG 20010904//EN"
 "http://www.w3.org/TR/2001/REC-SVG-20010904/DTD/svg10.dtd">
<svg version="1.0" xmlns="http://www.w3.org/2000/svg"
 width="200.000000pt" height="200.000000pt" viewBox="0 0 200.000000 200.000000"
 preserveAspectRatio="xMidYMid meet">

<g transform="translate(0.000000,200.000000) scale(0.100000,-0.100000)"
fill="#000000" stroke="none">
<path d="M0 1709 l0 -291 33 8 c17 5 61 7 97 6 64 -2 92 6 172 48 20 11 46 20
57 20 12 0 21 5 21 10 0 6 9 10 20 10 11 0 28 8 39 19 10 10 24 20 31 23 16 5
16 64 -1 84 -8 10 -8 14 0 14 6 0 11 7 11 15 0 11 -11 15 -37 15 -51 0 -66 11
-58 42 4 17 1 31 -11 43 -17 17 -19 17 -29 0 -25 -42 -48 -65 -65 -65 -20 0
-36 -17 -26 -27 4 -4 12 -1 18 5 17 17 28 15 28 -7 0 -11 6 -22 13 -24 6 -3
-9 -6 -35 -6 -34 -1 -48 -5 -48 -15 0 -7 9 -16 20 -19 11 -3 20 -10 20 -15 0
-17 -39 -25 -55 -12 -8 6 -19 9 -25 5 -5 -3 -10 -1 -10 4 0 6 -9 11 -19 11
-11 0 -23 5 -27 11 -3 6 -18 9 -33 6 -30 -6 -61 13 -61 38 0 12 -5 15 -16 11
-14 -5 -15 -4 -4 9 7 9 19 14 27 11 7 -3 13 -1 13 4 0 6 -7 10 -16 10 -12 0
-10 6 10 21 18 14 33 18 48 13 12 -3 42 -8 66 -10 43 -2 44 -2 40 26 -3 18 1
31 9 34 7 3 13 17 13 30 l0 25 37 -25 c35 -23 38 -24 44 -7 4 10 8 13 8 6 2
-24 101 -16 101 8 0 5 14 21 30 36 36 31 37 40 8 64 -27 24 -16 37 17 19 21
-11 27 -11 43 3 10 10 21 14 25 11 3 -4 24 -8 46 -10 38 -4 71 13 71 37 0 5
-134 9 -330 9 l-330 0 0 -291z m150 227 c0 -11 -19 -15 -25 -6 -3 5 1 10 9 10
9 0 16 -2 16 -4z m61 -119 c-13 -13 -31 0 -24 19 4 11 8 12 20 3 9 -8 10 -16
4 -22z m219 -186 c0 -11 -9 -21 -22 -24 -32 -9 -34 0 -7 22 30 25 29 25 29 2z
m-59 -74 c-1 -12 -15 -9 -19 4 -3 6 1 10 8 8 6 -3 11 -8 11 -12z"/>
<path d="M860 1990 c0 -5 5 -10 11 -10 5 0 7 5 4 10 -3 6 -8 10 -11 10 -2 0
-4 -4 -4 -10z"/>
<path d="M1480 1980 c49 -23 95 -23 95 0 0 12 -16 16 -70 18 l-70 2 45 -20z"/>
<path d="M1620 1990 c0 -5 4 -10 9 -10 6 0 13 5 16 10 3 6 -1 10 -9 10 -9 0
-16 -4 -16 -10z"/>
<path d="M1940 1976 c0 -22 -3 -24 -37 -20 -46 6 -72 -8 -55 -28 9 -11 9 -17
-1 -27 -9 -10 -8 -15 8 -24 11 -6 25 -12 30 -13 26 -3 55 -17 55 -26 0 -6 -11
-7 -24 -4 -15 4 -28 0 -36 -9 -14 -17 -70 -21 -70 -5 0 6 7 10 15 10 13 0 14
4 4 21 -8 16 -17 20 -39 15 -29 -5 -43 5 -65 48 -10 18 -19 21 -71 19 -32 -1
-69 -8 -82 -15 -16 -8 -25 -9 -30 -2 -9 14 -52 25 -52 14 0 -5 5 -12 10 -15 6
-3 10 -21 10 -40 0 -35 37 -76 80 -90 28 -9 20 -29 -13 -33 -15 -2 -27 -8 -27
-14 0 -7 -13 -8 -35 -5 -26 4 -35 2 -35 -8 0 -10 -10 -8 -39 8 -47 26 -56 20
-47 -27 5 -28 10 -33 26 -29 11 3 26 1 33 -5 7 -6 22 -9 33 -6 14 4 30 -4 51
-24 27 -28 31 -29 57 -15 23 12 30 12 43 1 18 -15 233 -19 233 -5 0 5 7 7 15
4 8 -4 17 -2 19 2 3 5 26 7 51 5 25 -1 45 0 45 2 0 19 -48 64 -67 64 -13 0
-23 6 -23 14 0 8 -5 16 -11 18 -5 2 -7 11 -4 20 8 21 48 35 53 19 2 -6 13 -11
23 -11 11 0 17 -4 14 -10 -3 -5 -1 -10 4 -10 7 0 11 45 11 130 l0 130 -30 0
c-25 0 -30 -4 -30 -24z m-249 -192 c12 -14 11 -16 -5 -13 -11 2 -21 10 -24 17
-5 17 13 15 29 -4z m-206 -94 c3 -5 1 -10 -4 -10 -6 0 -11 5 -11 10 0 6 2 10
4 10 3 0 8 -4 11 -10z"/>
<path d="M965 1959 c-12 -19 4 -59 25 -59 28 0 34 18 16 45 -18 27 -31 31 -41
14z"/>
<path d="M1280 1943 c-41 -5 -53 -19 -37 -44 8 -13 19 -16 34 -13 13 4 29 1
37 -5 20 -17 54 24 40 47 -12 19 -23 21 -74 15z"/>
<path d="M530 1851 c-13 -25 -13 -31 3 -31 6 0 20 12 30 25 17 24 17 25 -2 25
-11 0 -25 -9 -31 -19z"/>
<path d="M775 1855 c32 -14 41 -13 30 4 -3 6 -18 11 -33 10 l-27 -1 30 -13z"/>
<path d="M1350 1851 c0 -5 5 -13 10 -16 6 -3 10 -2 10 4 0 5 -4 13 -10 16 -5
3 -10 2 -10 -4z"/>
<path d="M600 1841 c0 -5 9 -11 20 -14 13 -3 20 0 20 9 0 8 -9 14 -20 14 -11
0 -20 -4 -20 -9z"/>
<path d="M405 1740 c-3 -5 1 -10 10 -10 9 0 13 5 10 10 -3 6 -8 10 -10 10 -2
0 -7 -4 -10 -10z"/>
<path d="M110 1680 c0 -5 7 -10 15 -10 8 0 15 5 15 10 0 6 -7 10 -15 10 -8 0
-15 -4 -15 -10z"/>
<path d="M65 1671 c-3 -5 -1 -12 5 -16 5 -3 10 1 10 9 0 18 -6 21 -15 7z"/>
<path d="M1420 1650 c0 -5 5 -10 10 -10 6 0 10 5 10 10 0 6 -4 10 -10 10 -5 0
-10 -4 -10 -10z"/>
<path d="M1520 1591 c0 -6 4 -13 10 -16 6 -3 7 1 4 9 -7 18 -14 21 -14 7z"/>
<path d="M1490 1568 c0 -19 2 -20 10 -8 13 19 13 30 0 30 -5 0 -10 -10 -10
-22z"/>
<path d="M1968 1583 c-16 -2 -28 -9 -28 -15 0 -6 3 -9 6 -5 3 3 17 2 30 -3 20
-8 24 -6 24 10 0 11 -1 19 -2 19 -2 -1 -15 -4 -30 -6z"/>
<path d="M1990 1530 c0 -5 -9 -10 -19 -10 -11 0 -23 -5 -26 -10 -3 -6 -18 -8
-33 -4 -26 5 -26 5 -8 -10 23 -18 42 -20 51 -6 3 6 15 10 26 10 12 0 19 7 19
20 0 11 -2 20 -5 20 -3 0 -5 -4 -5 -10z"/>
<path d="M1888 1473 c7 -3 16 -2 19 1 4 3 -2 6 -13 5 -11 0 -14 -3 -6 -6z"/>
<path d="M1200 1368 c0 -5 -5 -6 -10 -3 -6 3 -21 -2 -35 -13 -36 -29 -15 -40
63 -34 56 4 75 1 107 -17 22 -11 50 -21 62 -21 13 0 23 -5 23 -11 0 -15 -81
-3 -92 14 -6 9 -11 7 -19 -5 -5 -10 -19 -18 -29 -18 -14 0 -20 -7 -20 -21 0
-14 -5 -19 -14 -16 -8 3 -17 3 -20 0 -3 -3 -24 -7 -48 -8 -41 -3 -108 20 -108
37 0 15 -43 8 -62 -9 -14 -12 -36 -16 -87 -15 -56 1 -72 -3 -86 -18 -9 -10
-23 -16 -31 -13 -18 7 -44 -14 -44 -37 0 -12 -17 -22 -62 -35 -35 -10 -68 -23
-75 -28 -15 -11 -208 -11 -438 1 -94 4 -171 7 -173 6 -1 -1 -1 -49 0 -107 l3
-106 70 23 c39 13 106 27 149 30 109 10 135 16 130 31 -11 27 108 35 138 8 20
-18 23 -7 8 31 -9 24 -7 26 18 26 16 0 33 5 39 11 7 7 23 9 38 5 25 -6 26 -8
10 -20 -16 -11 -16 -13 1 -27 22 -18 177 -19 216 -2 15 7 39 13 53 13 15 0 34
4 44 10 10 5 46 10 80 12 47 2 64 -2 73 -15 11 -13 36 -17 128 -21 144 -6 152
-7 115 -16 -25 -6 -20 -8 25 -8 39 0 49 2 35 8 -18 8 -17 9 6 9 18 1 28 8 32
20 3 11 13 20 23 20 11 -1 75 2 143 5 101 4 129 2 154 -11 l31 -15 -25 -13
-24 -13 30 -7 c17 -3 38 -11 48 -16 10 -6 46 -9 80 -8 71 3 118 -8 96 -22 -10
-6 -8 -9 8 -9 l23 0 0 220 c-1 121 -4 220 -7 220 -4 0 -14 -7 -23 -15 -15 -13
-19 -13 -38 5 -21 20 -58 18 -45 -3 4 -7 -2 -8 -18 -3 -48 14 -92 18 -98 7 -7
-11 -43 -13 -144 -5 -46 4 -73 2 -83 -6 -10 -9 -36 -11 -88 -6 -53 5 -75 3
-78 -5 -3 -8 -21 -10 -61 -5 -32 4 -55 11 -53 15 2 3 -11 11 -30 17 -19 6 -34
7 -34 2z m652 -33 c0 -5 -5 -11 -11 -13 -6 -2 -11 4 -11 13 0 9 5 15 11 13 6
-2 11 -8 11 -13z m-47 -5 c-3 -5 -11 -10 -16 -10 -6 0 -7 5 -4 10 3 6 11 10
16 10 6 0 7 -4 4 -10z m48 -100 c9 0 17 -6 17 -14 0 -20 -48 -29 -81 -15 -21
8 -37 8 -60 0 -18 -6 -48 -10 -68 -10 -20 1 -27 3 -16 6 11 2 27 7 35 10 33
14 116 30 135 27 11 -2 28 -4 38 -4z m-413 -10 c0 -5 -4 -10 -9 -10 -6 0 -13
5 -16 10 -3 6 1 10 9 10 9 0 16 -4 16 -10z m487 4 c-3 -3 -12 -4 -19 -1 -8 3
-5 6 6 6 11 1 17 -2 13 -5z m-678 -69 c6 -3 9 -11 6 -16 -8 -12 -135 -12 -135
0 0 5 -9 7 -20 4 -11 -3 -20 -1 -20 5 0 6 10 13 23 16 28 6 132 0 146 -9z m51
1 c0 -2 -7 -7 -16 -10 -8 -3 -12 -2 -9 4 6 10 25 14 25 6z m-560 -136 c0 -5
-4 -10 -10 -10 -5 0 -10 5 -10 10 0 6 5 10 10 10 6 0 10 -4 10 -10z"/>
<path d="M825 1339 c-16 -3 -57 -8 -90 -9 -33 -1 -73 -6 -90 -10 -16 -4 31 -6
105 -3 74 2 136 6 138 8 10 10 -37 21 -63 14z"/>
<path d="M1977 824 c-8 -8 1 -24 14 -24 5 0 9 7 9 15 0 15 -12 20 -23 9z"/>
<path d="M634 800 c-29 -11 -50 -74 -36 -104 45 -91 47 -98 28 -111 -9 -7 -36
-16 -60 -19 -52 -8 -65 -22 -101 -103 l-28 -61 -51 -8 c-28 -4 -65 -6 -83 -6
-18 1 -35 -3 -38 -8 -3 -5 36 -7 95 -4 83 4 99 3 94 -9 -6 -17 -88 -28 -163
-22 -62 6 -68 9 -52 29 10 12 7 15 -20 18 -18 2 -34 9 -37 16 -3 9 4 11 25 6
27 -6 27 -6 8 9 -11 9 -28 17 -37 17 -10 0 -18 5 -18 10 0 6 8 10 18 11 10 0
5 6 -15 15 -37 16 -57 40 -24 29 15 -5 21 -2 21 9 0 9 -7 16 -15 16 -8 0 -15
5 -15 10 0 6 14 10 30 10 31 0 43 19 13 21 -12 1 -10 4 7 9 l25 8 -25 1 c-48
2 2 21 60 22 41 1 49 3 30 9 -24 7 -23 7 10 12 25 3 14 6 -35 8 l-70 4 70 6
70 6 -95 3 c-88 3 -214 16 -180 20 13 1 13 2 0 11 -12 7 -8 10 14 10 24 0 27
2 16 15 -9 10 -9 15 -1 15 6 0 11 5 11 10 0 6 -8 10 -18 10 -26 0 -33 10 -21
31 10 20 3 24 -25 13 -14 -5 -16 -50 -16 -400 l0 -394 1000 0 1000 0 0 395 c0
344 -2 395 -15 395 -8 0 -15 -7 -15 -15 0 -8 -7 -16 -15 -16 -8 -1 -18 -2 -22
-3 -5 -1 -34 -5 -65 -10 -56 -7 -90 -26 -49 -26 20 0 29 -14 14 -23 -5 -2 -3
-2 4 -1 6 1 24 -1 40 -6 20 -6 -5 -9 -82 -9 -75 -1 -105 -4 -95 -11 8 -5 26
-10 40 -11 20 -1 19 -3 -10 -10 -19 -4 -41 -6 -47 -4 -7 2 -17 -4 -23 -15 -13
-25 -13 -31 3 -27 7 1 11 -7 10 -19 -2 -16 5 -24 22 -28 16 -4 22 -11 19 -21
-4 -8 -1 -15 5 -15 6 0 11 6 11 14 0 8 7 16 15 20 8 3 15 1 15 -3 0 -5 -5 -11
-12 -13 -8 -3 -7 -13 5 -37 16 -32 16 -32 -16 -61 -26 -24 -28 -29 -12 -27 11
1 26 6 33 10 8 6 12 2 13 -10 0 -10 3 -13 6 -6 3 10 8 9 19 -2 8 -8 21 -12 29
-9 8 4 15 1 15 -5 0 -6 7 -11 16 -11 10 0 14 -6 10 -15 -3 -8 -1 -15 4 -15 6
0 10 5 10 10 0 6 6 10 13 10 8 0 14 -7 14 -16 0 -12 -10 -14 -56 -9 -31 4 -73
9 -94 11 -22 2 -67 0 -100 -5 -79 -12 -199 -15 -357 -8 -69 3 -135 3 -147 0
-46 -11 -21 -22 55 -26 l77 -3 -82 -2 c-62 -2 -84 1 -90 12 -6 10 -36 16 -102
20 -95 5 -121 17 -99 43 6 7 20 14 32 14 16 1 14 3 -8 8 -23 5 -32 16 -48 56
-28 71 -52 94 -110 101 -26 4 -48 10 -48 13 0 4 9 24 20 46 11 22 20 47 20 57
0 10 5 18 10 18 24 0 8 50 -25 79 -37 32 -77 39 -121 21z m1107 -222 c-13 -4
-27 -5 -33 -2 -16 10 11 22 35 16 20 -5 20 -5 -2 -14z m56 -40 c-3 -8 -6 -5
-6 6 -1 11 2 17 5 13 3 -3 4 -12 1 -19z m-7 -37 c0 -4 -7 -8 -15 -8 -8 0 -15
6 -15 13 0 8 6 11 15 8 8 -4 15 -9 15 -13z m-1623 -107 c-3 -3 -12 -4 -19 -1
-8 3 -5 6 6 6 11 1 17 -2 13 -5z m15 -36 c-7 -7 -12 -8 -12 -2 0 14 12 26 19
19 2 -3 -1 -11 -7 -17z"/>
<path d="M208 473 c6 -2 18 -2 25 0 6 3 1 5 -13 5 -14 0 -19 -2 -12 -5z"/>
<path d="M248 423 c7 -3 16 -2 19 1 4 3 -2 6 -13 5 -11 0 -14 -3 -6 -6z"/>
<path d="M1680 420 c0 -5 5 -10 10 -10 6 0 10 5 10 10 0 6 -4 10 -10 10 -5 0
-10 -4 -10 -10z"/>
<path d="M978 403 c6 -2 18 -2 25 0 6 3 1 5 -13 5 -14 0 -19 -2 -12 -5z"/>
<path d="M1438 403 c12 -2 30 -2 40 0 9 3 -1 5 -23 4 -22 0 -30 -2 -17 -4z"/>
<path d="M1633 393 c15 -2 37 -2 50 0 12 2 0 4 -28 4 -27 0 -38 -2 -22 -4z"/>
<path d="M1608 363 c7 -3 16 -2 19 1 4 3 -2 6 -13 5 -11 0 -14 -3 -6 -6z"/>
</g>
</svg>
